<svg class="toyplot-canvas-Canvas" xmlns:toyplot="http://www.sandia.gov/toyplot" xmlns:xlink="http://www.w3.org/1999/xlink" xmlns="http://www.w3.org/2000/svg" width="260.0px" height="275.0px" viewBox="0 0 260.0 275.0" preserveAspectRatio="xMidYMid meet" style="background-color:white;border-color:#292724;border-style:none;border-width:1.0;fill:rgb(16.1%,15.3%,14.1%);fill-opacity:1.0;font-family:Helvetica;font-size:12px;opacity:1.0;stroke:rgb(16.1%,15.3%,14.1%);stroke-opacity:1.0;stroke-width:1.0" id="tff07c1f68ad1488bb926760d47563f03"><g class="toyplot-coordinates-Cartesian" id="t9fdd765bcee34d8c9ced3a1c99099ca4"><clipPath id="t572ef5397ca5487fbce71c70e37bb3d1"><rect x="35.0" y="35.0" width="190.0" height="205.0" /></clipPath><g clip-path="url(#t572ef5397ca5487fbce71c70e37bb3d1)"><g class="toytree-mark-Toytree" id="t10eb20c0cda44830811ea8711012c02e"><g class="toytree-Edges" style="fill:none;stroke:rgba(16.1%,15.3%,14.1%,1.000);stroke-linecap:round;stroke-width:2.0"><path d="M 144.4 205.5 L 144.4 216.8 L 173.7 216.8" id="8,0" style="stroke-width:nan" /><path d="M 144.4 205.5 L 144.4 194.2 L 173.7 194.2" id="8,1" style="stroke-width:nan" /><path d="M 144.4 160.2 L 144.4 171.5 L 173.7 171.5" id="9,2" style="stroke-width:nan" /><path d="M 144.4 160.2 L 144.4 148.8 L 173.7 148.8" id="9,3" style="stroke-width:nan" /><path d="M 115.2 114.8 L 115.2 126.2 L 173.7 126.2" id="11,4" style="stroke-width:nan" /><path d="M 115.2 114.8 L 115.2 103.5 L 173.7 103.5" id="11,5" style="stroke-width:nan" /><path d="M 85.9 69.5 L 85.9 80.8 L 173.7 80.8" id="13,6" style="stroke-width:nan" /><path d="M 85.9 69.5 L 85.9 58.2 L 173.7 58.2" id="13,7" style="stroke-width:nan" /><path d="M 115.2 182.8 L 115.2 205.5 L 144.4 205.5" id="10,8" style="stroke-width:nan" /><path d="M 115.2 182.8 L 115.2 160.2 L 144.4 160.2" id="10,9" style="stroke-width:nan" /><path d="M 85.9 148.8 L 85.9 182.8 L 115.2 182.8" id="12,10" style="stroke-width:nan" /><path d="M 85.9 148.8 L 85.9 114.8 L 115.2 114.8" id="12,11" style="stroke-width:nan" /><path d="M 56.6 109.2 L 56.6 148.8 L 85.9 148.8" id="14,12" style="stroke-width:nan" /><path d="M 56.6 109.2 L 56.6 69.5 L 85.9 69.5" id="14,13" style="stroke-width:nan" /></g><g class="toytree-Nodes" style="fill:rgba(40.0%,76.1%,64.7%,1.000);stroke:#262626;stroke-width:1.0"><g id="node-0" transform="translate(173.720,216.839)"><circle r="9.0" /></g><g id="node-1" transform="translate(173.720,194.171)"><circle r="9.0" /></g><g id="node-2" transform="translate(173.720,171.503)"><circle r="9.0" /></g><g id="node-3" transform="translate(173.720,148.834)"><circle r="9.0" /></g><g id="node-4" transform="translate(173.720,126.166)"><circle r="9.0" /></g><g id="node-5" transform="translate(173.720,103.497)"><circle r="9.0" /></g><g id="node-6" transform="translate(173.720,80.829)"><circle r="9.0" /></g><g id="node-7" transform="translate(173.720,58.161)"><circle r="9.0" /></g><g id="node-8" transform="translate(144.437,205.505)"><circle r="9.0" /></g><g id="node-9" transform="translate(144.437,160.168)"><circle r="9.0" /></g><g id="node-10" transform="translate(115.154,182.837)"><circle r="9.0" /></g><g id="node-11" transform="translate(115.154,114.832)"><circle r="9.0" /></g><g id="node-12" transform="translate(85.871,148.834)"><circle r="9.0" /></g><g id="node-13" transform="translate(85.871,69.495)"><circle r="9.0" /></g><g id="node-14" transform="translate(56.589,109.165)"><circle r="9.0" /></g></g><g class="toytree-NodeLabels" style="font-family:Helvetica;font-size:9.0px;font-weight:300;stroke:none;vertical-align:baseline;white-space:pre"><g class="toytree-NodeLabel" transform="translate(173.7200193998847,216.839378238342)"><text x="-2.5020000000000002" y="2.2995" style="fill:rgb(16.1%,15.3%,14.1%);fill-opacity:1.0">0</text></g><g class="toytree-NodeLabel" transform="translate(173.7200193998847,194.17098445595855)"><text x="-2.5020000000000002" y="2.2995" style="fill:rgb(16.1%,15.3%,14.1%);fill-opacity:1.0">1</text></g><g class="toytree-NodeLabel" transform="translate(173.7200193998847,171.50259067357513)"><text x="-2.5020000000000002" y="2.2995" style="fill:rgb(16.1%,15.3%,14.1%);fill-opacity:1.0">2</text></g><g class="toytree-NodeLabel" transform="translate(173.7200193998847,148.8341968911917)"><text x="-2.5020000000000002" y="2.2995" style="fill:rgb(16.1%,15.3%,14.1%);fill-opacity:1.0">3</text></g><g class="toytree-NodeLabel" transform="translate(173.7200193998847,126.16580310880829)"><text x="-2.5020000000000002" y="2.2995" style="fill:rgb(16.1%,15.3%,14.1%);fill-opacity:1.0">4</text></g><g class="toytree-NodeLabel" transform="translate(173.7200193998847,103.49740932642487)"><text x="-2.5020000000000002" y="2.2995" style="fill:rgb(16.1%,15.3%,14.1%);fill-opacity:1.0">5</text></g><g class="toytree-NodeLabel" transform="translate(173.7200193998847,80.82901554404145)"><text x="-2.5020000000000002" y="2.2995" style="fill:rgb(16.1%,15.3%,14.1%);fill-opacity:1.0">6</text></g><g class="toytree-NodeLabel" transform="translate(173.7200193998847,58.16062176165802)"><text x="-2.5020000000000002" y="2.2995" style="fill:rgb(16.1%,15.3%,14.1%);fill-opacity:1.0">7</text></g><g class="toytree-NodeLabel" transform="translate(144.43717457150962,205.50518134715028)"><text x="-2.5020000000000002" y="2.2995" style="fill:rgb(16.1%,15.3%,14.1%);fill-opacity:1.0">8</text></g><g class="toytree-NodeLabel" transform="translate(144.43717457150962,160.16839378238342)"><text x="-2.5020000000000002" y="2.2995" style="fill:rgb(16.1%,15.3%,14.1%);fill-opacity:1.0">9</text></g><g class="toytree-NodeLabel" transform="translate(115.15432974313454,182.83678756476684)"><text x="-5.0040000000000004" y="2.2995" style="fill:rgb(16.1%,15.3%,14.1%);fill-opacity:1.0">10</text></g><g class="toytree-NodeLabel" transform="translate(115.15432974313454,114.83160621761658)"><text x="-5.0040000000000004" y="2.2995" style="fill:rgb(16.1%,15.3%,14.1%);fill-opacity:1.0">11</text></g><g class="toytree-NodeLabel" transform="translate(85.87148491475946,148.8341968911917)"><text x="-5.0040000000000004" y="2.2995" style="fill:rgb(16.1%,15.3%,14.1%);fill-opacity:1.0">12</text></g><g class="toytree-NodeLabel" transform="translate(85.87148491475946,69.49481865284973)"><text x="-5.0040000000000004" y="2.2995" style="fill:rgb(16.1%,15.3%,14.1%);fill-opacity:1.0">13</text></g><g class="toytree-NodeLabel" transform="translate(56.58864008638438,109.16450777202073)"><text x="-5.0040000000000004" y="2.2995" style="fill:rgb(16.1%,15.3%,14.1%);fill-opacity:1.0">14</text></g></g><g class="toytree-TipLabels" style="fill:rgb(16.1%,15.3%,14.1%);fill-opacity:1.0;font-family:Helvetica;font-size:11.0px;font-weight:300;stroke:none;vertical-align:baseline;white-space:pre"><g class="toytree-TipLabel" transform="translate(173.7200193998847,216.839378238342)"><text x="15.0" y="2.8104999999999993" style="">r0</text></g><g class="toytree-TipLabel" transform="translate(173.7200193998847,194.17098445595855)"><text x="15.0" y="2.8104999999999993" style="">r1</text></g><g class="toytree-TipLabel" transform="translate(173.7200193998847,171.50259067357513)"><text x="15.0" y="2.8104999999999993" style="">r2</text></g><g class="toytree-TipLabel" transform="translate(173.7200193998847,148.8341968911917)"><text x="15.0" y="2.8104999999999993" style="">r3</text></g><g class="toytree-TipLabel" transform="translate(173.7200193998847,126.16580310880829)"><text x="15.0" y="2.8104999999999993" style="">r4</text></g><g class="toytree-TipLabel" transform="translate(173.7200193998847,103.49740932642487)"><text x="15.0" y="2.8104999999999993" style="">r5</text></g><g class="toytree-TipLabel" transform="translate(173.7200193998847,80.82901554404145)"><text x="15.0" y="2.8104999999999993" style="">r6</text></g><g class="toytree-TipLabel" transform="translate(173.7200193998847,58.16062176165802)"><text x="15.0" y="2.8104999999999993" style="">r7</text></g></g></g></g></g></svg>