<svg class="toyplot-canvas-Canvas" xmlns:toyplot="http://www.sandia.gov/toyplot" xmlns:xlink="http://www.w3.org/1999/xlink" xmlns="http://www.w3.org/2000/svg" width="500.0px" height="250.0px" viewBox="0 0 500.0 250.0" preserveAspectRatio="xMidYMid meet" style="background-color:white;border-color:#292724;border-style:none;border-width:1.0;fill:rgb(16.1%,15.3%,14.1%);fill-opacity:1.0;font-family:Helvetica;font-size:12px;opacity:1.0;stroke:rgb(16.1%,15.3%,14.1%);stroke-opacity:1.0;stroke-width:1.0" id="t6595e927e62b4fddb81d955f37691b85"><g class="toyplot-coordinates-Cartesian" id="t0c08dcb946594f0c88adfe1cdf9a347f"><clipPath id="t4cb93866425b4cf580ca6826fa3922bc"><rect x="35.0" y="35.0" width="430.0" height="180.0" /></clipPath><g clip-path="url(#t4cb93866425b4cf580ca6826fa3922bc)"><g class="toytree-mark-Toytree" id="t6b150ef13dab4d789e8efd8b5d78c455"><g class="toytree-Edges" style="fill:none;stroke:rgba(16.1%,15.3%,14.1%,1.000);stroke-linecap:round;stroke-width:2.0"><path d="M 68.2 158.1 L 68.2 158.1 L 68.2 191.2" id="7,0" style="stroke-width:nan" /><path d="M 128.8 158.1 L 128.8 158.1 L 128.8 191.2" id="8,1" style="stroke-width:nan" /><path d="M 189.4 158.1 L 189.4 158.1 L 189.4 191.2" id="9,2" style="stroke-width:nan" /><path d="M 250.0 91.9 L 250.0 91.9 L 250.0 125.0" id="12,3" style="stroke-width:nan" /><path d="M 310.6 91.9 L 310.6 91.9 L 310.6 125.0" id="13,4" style="stroke-width:nan" /><path d="M 371.2 91.9 L 371.2 91.9 L 371.2 125.0" id="14,5" style="stroke-width:nan" /><path d="M 431.8 91.9 L 431.8 91.9 L 431.8 125.0" id="15,6" style="stroke-width:nan" /><path d="M 128.8 125.0 L 68.2 125.0 L 68.2 158.1" id="10,7" style="stroke-width:nan" /><path d="M 128.8 125.0 L 128.8 125.0 L 128.8 158.1" id="10,8" style="stroke-width:nan" /><path d="M 128.8 125.0 L 189.4 125.0 L 189.4 158.1" id="10,9" style="stroke-width:nan" /><path d="M 128.8 91.9 L 128.8 91.9 L 128.8 125.0" id="11,10" style="stroke-width:nan" /><path d="M 298.5 58.8 L 128.8 58.8 L 128.8 91.9" id="16,11" style="stroke-width:nan" /><path d="M 298.5 58.8 L 250.0 58.8 L 250.0 91.9" id="16,12" style="stroke-width:nan" /><path d="M 298.5 58.8 L 310.6 58.8 L 310.6 91.9" id="16,13" style="stroke-width:nan" /><path d="M 298.5 58.8 L 371.2 58.8 L 371.2 91.9" id="16,14" style="stroke-width:nan" /><path d="M 298.5 58.8 L 431.8 58.8 L 431.8 91.9" id="16,15" style="stroke-width:nan" /></g><g class="toytree-Nodes" style="fill:rgba(82.7%,82.7%,82.7%,1.000);stroke:#262626;stroke-width:2.0"><g id="node-0" transform="translate(68.182,191.176)"><rect x="-20.0" y="-10.0" width="40.0" height="20.0" /></g><g id="node-1" transform="translate(128.788,191.176)"><rect x="-20.0" y="-10.0" width="40.0" height="20.0" /></g><g id="node-2" transform="translate(189.394,191.176)"><rect x="-20.0" y="-10.0" width="40.0" height="20.0" /></g><g id="node-3" transform="translate(250.000,125.000)"><rect x="-20.0" y="-10.0" width="40.0" height="20.0" /></g><g id="node-4" transform="translate(310.606,125.000)"><rect x="-20.0" y="-10.0" width="40.0" height="20.0" /></g><g id="node-5" transform="translate(371.212,125.000)"><rect x="-20.0" y="-10.0" width="40.0" height="20.0" /></g><g id="node-6" transform="translate(431.818,125.000)"><rect x="-20.0" y="-10.0" width="40.0" height="20.0" /></g><g id="node-7" transform="translate(68.182,158.088)"><rect x="-20.0" y="-10.0" width="40.0" height="20.0" /></g><g id="node-8" transform="translate(128.788,158.088)"><rect x="-20.0" y="-10.0" width="40.0" height="20.0" /></g><g id="node-9" transform="translate(189.394,158.088)"><rect x="-20.0" y="-10.0" width="40.0" height="20.0" /></g><g id="node-10" transform="translate(128.788,125.000)"><rect x="-20.0" y="-10.0" width="40.0" height="20.0" /></g><g id="node-11" transform="translate(128.788,91.912)"><rect x="-20.0" y="-10.0" width="40.0" height="20.0" /></g><g id="node-12" transform="translate(250.000,91.912)"><rect x="-20.0" y="-10.0" width="40.0" height="20.0" /></g><g id="node-13" transform="translate(310.606,91.912)"><rect x="-20.0" y="-10.0" width="40.0" height="20.0" /></g><g id="node-14" transform="translate(371.212,91.912)"><rect x="-20.0" y="-10.0" width="40.0" height="20.0" /></g><g id="node-15" transform="translate(431.818,91.912)"><rect x="-20.0" y="-10.0" width="40.0" height="20.0" /></g><g id="node-16" transform="translate(298.485,58.824)"><rect x="-20.0" y="-10.0" width="40.0" height="20.0" /></g></g><g class="toytree-NodeLabels" style="font-family:Helvetica;font-size:14.0px;font-weight:300;stroke:none;vertical-align:baseline;white-space:pre"><g class="toytree-NodeLabel" transform="translate(68.18181818181819,191.17647058823528)"><text x="-5.838" y="3.577" style="fill:rgb(16.1%,15.3%,14.1%);fill-opacity:1.0">...</text></g><g class="toytree-NodeLabel" transform="translate(128.78787878787878,191.17647058823528)"><text x="-5.838" y="3.577" style="fill:rgb(16.1%,15.3%,14.1%);fill-opacity:1.0">...</text></g><g class="toytree-NodeLabel" transform="translate(189.39393939393938,191.17647058823528)"><text x="-5.838" y="3.577" style="fill:rgb(16.1%,15.3%,14.1%);fill-opacity:1.0">...</text></g><g class="toytree-NodeLabel" transform="translate(249.99999999999997,125.0)"><text x="-5.838" y="3.577" style="fill:rgb(16.1%,15.3%,14.1%);fill-opacity:1.0">...</text></g><g class="toytree-NodeLabel" transform="translate(310.60606060606057,125.0)"><text x="-5.838" y="3.577" style="fill:rgb(16.1%,15.3%,14.1%);fill-opacity:1.0">...</text></g><g class="toytree-NodeLabel" transform="translate(371.2121212121212,125.0)"><text x="-5.838" y="3.577" style="fill:rgb(16.1%,15.3%,14.1%);fill-opacity:1.0">...</text></g><g class="toytree-NodeLabel" transform="translate(431.81818181818176,125.0)"><text x="-5.838" y="3.577" style="fill:rgb(16.1%,15.3%,14.1%);fill-opacity:1.0">...</text></g><g class="toytree-NodeLabel" transform="translate(68.18181818181819,158.08823529411765)"><text x="-15.946" y="3.577" style="fill:rgb(16.1%,15.3%,14.1%);fill-opacity:1.0">Docs</text></g><g class="toytree-NodeLabel" transform="translate(128.78787878787878,158.08823529411765)"><text x="-13.222999999999999" y="3.577" style="fill:rgb(16.1%,15.3%,14.1%);fill-opacity:1.0">Pics</text></g><g class="toytree-NodeLabel" transform="translate(189.39393939393938,158.08823529411765)"><text x="-18.277" y="3.577" style="fill:rgb(16.1%,15.3%,14.1%);fill-opacity:1.0">Music</text></g><g class="toytree-NodeLabel" transform="translate(128.78787878787878,125.0)"><text x="-17.898999999999997" y="3.577" style="fill:rgb(16.1%,15.3%,14.1%);fill-opacity:1.0">deren</text></g><g class="toytree-NodeLabel" transform="translate(128.78787878787878,91.91176470588235)"><text x="-17.507" y="3.577" style="fill:rgb(16.1%,15.3%,14.1%);fill-opacity:1.0">home</text></g><g class="toytree-NodeLabel" transform="translate(249.99999999999997,91.91176470588235)"><text x="-9.723" y="3.577" style="fill:rgb(16.1%,15.3%,14.1%);fill-opacity:1.0">usr</text></g><g class="toytree-NodeLabel" transform="translate(310.60606060606057,91.91176470588235)"><text x="-9.338000000000001" y="3.577" style="fill:rgb(16.1%,15.3%,14.1%);fill-opacity:1.0">bin</text></g><g class="toytree-NodeLabel" transform="translate(371.2121212121212,91.91176470588235)"><text x="-11.668999999999999" y="3.577" style="fill:rgb(16.1%,15.3%,14.1%);fill-opacity:1.0">tmp</text></g><g class="toytree-NodeLabel" transform="translate(431.81818181818176,91.91176470588235)"><text x="-11.284" y="3.577" style="fill:rgb(16.1%,15.3%,14.1%);fill-opacity:1.0">dev</text></g><g class="toytree-NodeLabel" transform="translate(298.48484848484844,58.8235294117647)"><text x="-1.9460000000000004" y="3.577" style="fill:rgb(16.1%,15.3%,14.1%);fill-opacity:1.0">/</text></g></g></g></g></g></svg>