<svg class="toyplot-canvas-Canvas" xmlns:toyplot="http://www.sandia.gov/toyplot" xmlns:xlink="http://www.w3.org/1999/xlink" xmlns="http://www.w3.org/2000/svg" width="500.0px" height="275.0px" viewBox="0 0 500.0 275.0" preserveAspectRatio="xMidYMid meet" style="background-color:white;border-color:#292724;border-style:none;border-width:1.0;fill:rgb(16.1%,15.3%,14.1%);fill-opacity:1.0;font-family:Helvetica;font-size:12px;opacity:1.0;stroke:rgb(16.1%,15.3%,14.1%);stroke-opacity:1.0;stroke-width:1.0" id="t253f6e52b1414d7b98e2dd4250287984"><g class="toyplot-coordinates-Cartesian" id="t63cf4615a89b40cdb7bf203a18f93955"><clipPath id="taa3d72795121468e846f546130c0bd20"><rect x="35.0" y="35.0" width="430.0" height="205.0" /></clipPath><g clip-path="url(#taa3d72795121468e846f546130c0bd20)"><g class="toytree-mark-Toytree" id="t3ce999b8ed9b4d7fb7c860a687f94b20"><g class="toytree-Edges" style="fill:none;stroke:rgba(16.1%,15.3%,14.1%,1.000);stroke-linecap:round;stroke-width:2.0"><path d="M 249.4 194.9 L 249.4 214.1 L 340.6 214.1" id="5,0" style="stroke-width:nan" /><path d="M 249.4 194.9 L 249.4 175.8 L 340.6 175.8" id="5,1" style="stroke-width:nan" /><path d="M 158.3 108.8 L 158.3 137.5 L 340.6 137.5" id="7,2" style="stroke-width:nan" /><path d="M 249.4 80.1 L 249.4 99.2 L 340.6 99.2" id="6,3" style="stroke-width:nan" /><path d="M 249.4 80.1 L 249.4 60.9 L 340.6 60.9" id="6,4" style="stroke-width:nan" /><path d="M 67.1 151.9 L 67.1 194.9 L 249.4 194.9" id="8,5" style="stroke-width:nan" /><path d="M 158.3 108.8 L 158.3 80.1 L 249.4 80.1" id="7,6" style="stroke-width:nan" /><path d="M 67.1 151.9 L 67.1 108.8 L 158.3 108.8" id="8,7" style="stroke-width:nan" /></g><g class="toytree-Nodes" style="fill:rgba(82.7%,82.7%,82.7%,1.000);stroke:#262626;stroke-width:1.0"><g id="node-0" transform="translate(340.588,214.062)"><rect x="-25.0" y="-12.5" width="50.0" height="25.0" /></g><g id="node-1" transform="translate(340.588,175.781)"><rect x="-25.0" y="-12.5" width="50.0" height="25.0" /></g><g id="node-2" transform="translate(340.588,137.500)"><rect x="-25.0" y="-12.5" width="50.0" height="25.0" /></g><g id="node-3" transform="translate(340.588,99.219)"><rect x="-25.0" y="-12.5" width="50.0" height="25.0" /></g><g id="node-4" transform="translate(340.588,60.938)"><rect x="-25.0" y="-12.5" width="50.0" height="25.0" /></g><g id="node-5" transform="translate(249.423,194.922)"><rect x="-25.0" y="-12.5" width="50.0" height="25.0" /></g><g id="node-6" transform="translate(249.423,80.078)"><rect x="-25.0" y="-12.5" width="50.0" height="25.0" /></g><g id="node-7" transform="translate(158.258,108.789)"><rect x="-25.0" y="-12.5" width="50.0" height="25.0" /></g><g id="node-8" transform="translate(67.093,151.855)"><rect x="-25.0" y="-12.5" width="50.0" height="25.0" /></g></g><g class="toytree-NodeLabels" style="font-family:Helvetica;font-size:15.0px;font-weight:300;stroke:none;vertical-align:baseline;white-space:pre"><g class="toytree-NodeLabel" transform="translate(340.58835595364263,214.0625)"><text x="-9.18" y="3.8324999999999996" style="fill:rgb(16.1%,15.3%,14.1%);fill-opacity:1.0">{1}</text></g><g class="toytree-NodeLabel" transform="translate(340.58835595364263,175.78125)"><text x="-9.18" y="3.8324999999999996" style="fill:rgb(16.1%,15.3%,14.1%);fill-opacity:1.0">{1}</text></g><g class="toytree-NodeLabel" transform="translate(340.58835595364263,137.5)"><text x="-9.18" y="3.8324999999999996" style="fill:rgb(16.1%,15.3%,14.1%);fill-opacity:1.0">{1}</text></g><g class="toytree-NodeLabel" transform="translate(340.58835595364263,99.21875)"><text x="-9.18" y="3.8324999999999996" style="fill:rgb(16.1%,15.3%,14.1%);fill-opacity:1.0">{0}</text></g><g class="toytree-NodeLabel" transform="translate(340.58835595364263,60.9375)"><text x="-9.18" y="3.8324999999999996" style="fill:rgb(16.1%,15.3%,14.1%);fill-opacity:1.0">{0}</text></g><g class="toytree-NodeLabel" transform="translate(249.42338153681357,194.921875)"><text x="-9.18" y="3.8324999999999996" style="fill:rgb(16.1%,15.3%,14.1%);fill-opacity:1.0">{1}</text></g><g class="toytree-NodeLabel" transform="translate(249.42338153681357,80.078125)"><text x="-9.18" y="3.8324999999999996" style="fill:rgb(16.1%,15.3%,14.1%);fill-opacity:1.0">{0}</text></g><g class="toytree-NodeLabel" transform="translate(158.25840711998453,108.7890625)"><text x="-17.52" y="3.8324999999999996" style="fill:rgb(16.1%,15.3%,14.1%);fill-opacity:1.0">{0, 1}</text></g><g class="toytree-NodeLabel" transform="translate(67.09343270315544,151.85546875)"><text x="-9.18" y="3.8324999999999996" style="fill:rgb(16.1%,15.3%,14.1%);fill-opacity:1.0">{1}</text></g></g><g class="toytree-TipLabels" style="fill:rgb(16.1%,15.3%,14.1%);fill-opacity:1.0;font-family:Helvetica;font-size:15.0px;font-weight:300;stroke:none;vertical-align:baseline;white-space:pre"><g class="toytree-TipLabel" transform="translate(340.58835595364263,214.0625)"><text x="30.0" y="3.8324999999999996" style="">alpha</text></g><g class="toytree-TipLabel" transform="translate(340.58835595364263,175.78125)"><text x="30.0" y="3.8324999999999996" style="">delta</text></g><g class="toytree-TipLabel" transform="translate(340.58835595364263,137.5)"><text x="30.0" y="3.8324999999999996" style="">gamma</text></g><g class="toytree-TipLabel" transform="translate(340.58835595364263,99.21875)"><text x="30.0" y="3.8324999999999996" style="">beta</text></g><g class="toytree-TipLabel" transform="translate(340.58835595364263,60.9375)"><text x="30.0" y="3.8324999999999996" style="">epsilon</text></g></g></g></g></g></svg>