<svg class="toyplot-canvas-Canvas" xmlns:toyplot="http://www.sandia.gov/toyplot" xmlns:xlink="http://www.w3.org/1999/xlink" xmlns="http://www.w3.org/2000/svg" width="350.0px" height="260.0px" viewBox="0 0 350.0 260.0" preserveAspectRatio="xMidYMid meet" style="background-color:white;border-color:#292724;border-style:none;border-width:1.0;fill:rgb(16.1%,15.3%,14.1%);fill-opacity:1.0;font-family:Helvetica;font-size:12px;opacity:1.0;stroke:rgb(16.1%,15.3%,14.1%);stroke-opacity:1.0;stroke-width:1.0" id="t162fffa8bb294820a0d93b3f4bd3c988"><g class="toyplot-coordinates-Cartesian" id="tfe67b1bce15d4f9d94a1a044ed610a9e"><clipPath id="t3e765daf38d04816bcb119ee855e0ce3"><rect x="35.0" y="35.0" width="280.0" height="190.0" /></clipPath><g clip-path="url(#t3e765daf38d04816bcb119ee855e0ce3)"><g class="toytree-mark-Toytree" id="t86065446ed524a6d816090eb996ae916"><g class="toytree-Edges" style="fill:none;stroke:rgba(16.1%,15.3%,14.1%,1.000);stroke-linecap:round;stroke-width:2.0"><path d="M 75.1 144.4 L 58.4 144.4 L 58.4 173.7" id="8,0" style="stroke-width:nan" /><path d="M 75.1 144.4 L 91.7 144.4 L 91.7 173.7" id="8,1" style="stroke-width:nan" /><path d="M 141.7 144.4 L 125.0 144.4 L 125.0 173.7" id="9,2" style="stroke-width:nan" /><path d="M 141.7 144.4 L 158.3 144.4 L 158.3 173.7" id="9,3" style="stroke-width:nan" /><path d="M 208.3 115.2 L 191.7 115.2 L 191.7 173.7" id="11,4" style="stroke-width:nan" /><path d="M 208.3 115.2 L 225.0 115.2 L 225.0 173.7" id="11,5" style="stroke-width:nan" /><path d="M 274.9 85.9 L 258.3 85.9 L 258.3 173.7" id="13,6" style="stroke-width:nan" /><path d="M 274.9 85.9 L 291.6 85.9 L 291.6 173.7" id="13,7" style="stroke-width:nan" /><path d="M 108.4 115.2 L 75.1 115.2 L 75.1 144.4" id="10,8" style="stroke-width:nan" /><path d="M 108.4 115.2 L 141.7 115.2 L 141.7 144.4" id="10,9" style="stroke-width:nan" /><path d="M 158.3 85.9 L 108.4 85.9 L 108.4 115.2" id="12,10" style="stroke-width:nan" /><path d="M 158.3 85.9 L 208.3 85.9 L 208.3 115.2" id="12,11" style="stroke-width:nan" /><path d="M 216.6 56.6 L 158.3 56.6 L 158.3 85.9" id="14,12" style="stroke-width:nan" /><path d="M 216.6 56.6 L 274.9 56.6 L 274.9 85.9" id="14,13" style="stroke-width:nan" /></g><g class="toytree-Nodes" style="fill:rgba(40.0%,76.1%,64.7%,1.000);stroke:#262626;stroke-width:1.0"><g id="node-0" transform="translate(58.396,173.720)"><circle r="9.0" /></g><g id="node-1" transform="translate(91.711,173.720)"><circle r="9.0" /></g><g id="node-2" transform="translate(125.027,173.720)"><circle r="9.0" /></g><g id="node-3" transform="translate(158.342,173.720)"><circle r="9.0" /></g><g id="node-4" transform="translate(191.658,173.720)"><circle r="9.0" /></g><g id="node-5" transform="translate(224.973,173.720)"><circle r="9.0" /></g><g id="node-6" transform="translate(258.289,173.720)"><circle r="9.0" /></g><g id="node-7" transform="translate(291.604,173.720)"><circle r="9.0" /></g><g id="node-8" transform="translate(75.053,144.437)"><circle r="9.0" /></g><g id="node-9" transform="translate(141.684,144.437)"><circle r="9.0" /></g><g id="node-10" transform="translate(108.369,115.154)"><circle r="9.0" /></g><g id="node-11" transform="translate(208.316,115.154)"><circle r="9.0" /></g><g id="node-12" transform="translate(158.342,85.871)"><circle r="9.0" /></g><g id="node-13" transform="translate(274.947,85.871)"><circle r="9.0" /></g><g id="node-14" transform="translate(216.644,56.589)"><circle r="9.0" /></g></g><g class="toytree-NodeLabels" style="font-family:Helvetica;font-size:9.0px;font-weight:300;stroke:none;vertical-align:baseline;white-space:pre"><g class="toytree-NodeLabel" transform="translate(58.395522388059696,173.7200193998847)"><text x="-2.5020000000000002" y="2.2995" style="fill:rgb(16.1%,15.3%,14.1%);fill-opacity:1.0">0</text></g><g class="toytree-NodeLabel" transform="translate(91.71108742004265,173.7200193998847)"><text x="-2.5020000000000002" y="2.2995" style="fill:rgb(16.1%,15.3%,14.1%);fill-opacity:1.0">1</text></g><g class="toytree-NodeLabel" transform="translate(125.02665245202557,173.7200193998847)"><text x="-2.5020000000000002" y="2.2995" style="fill:rgb(16.1%,15.3%,14.1%);fill-opacity:1.0">2</text></g><g class="toytree-NodeLabel" transform="translate(158.34221748400853,173.7200193998847)"><text x="-2.5020000000000002" y="2.2995" style="fill:rgb(16.1%,15.3%,14.1%);fill-opacity:1.0">3</text></g><g class="toytree-NodeLabel" transform="translate(191.65778251599144,173.7200193998847)"><text x="-2.5020000000000002" y="2.2995" style="fill:rgb(16.1%,15.3%,14.1%);fill-opacity:1.0">4</text></g><g class="toytree-NodeLabel" transform="translate(224.97334754797438,173.7200193998847)"><text x="-2.5020000000000002" y="2.2995" style="fill:rgb(16.1%,15.3%,14.1%);fill-opacity:1.0">5</text></g><g class="toytree-NodeLabel" transform="translate(258.28891257995735,173.7200193998847)"><text x="-2.5020000000000002" y="2.2995" style="fill:rgb(16.1%,15.3%,14.1%);fill-opacity:1.0">6</text></g><g class="toytree-NodeLabel" transform="translate(291.6044776119403,173.7200193998847)"><text x="-2.5020000000000002" y="2.2995" style="fill:rgb(16.1%,15.3%,14.1%);fill-opacity:1.0">7</text></g><g class="toytree-NodeLabel" transform="translate(75.05330490405117,144.43717457150962)"><text x="-2.5020000000000002" y="2.2995" style="fill:rgb(16.1%,15.3%,14.1%);fill-opacity:1.0">8</text></g><g class="toytree-NodeLabel" transform="translate(141.68443496801706,144.43717457150962)"><text x="-2.5020000000000002" y="2.2995" style="fill:rgb(16.1%,15.3%,14.1%);fill-opacity:1.0">9</text></g><g class="toytree-NodeLabel" transform="translate(108.36886993603412,115.15432974313454)"><text x="-5.0040000000000004" y="2.2995" style="fill:rgb(16.1%,15.3%,14.1%);fill-opacity:1.0">10</text></g><g class="toytree-NodeLabel" transform="translate(208.31556503198294,115.15432974313454)"><text x="-5.0040000000000004" y="2.2995" style="fill:rgb(16.1%,15.3%,14.1%);fill-opacity:1.0">11</text></g><g class="toytree-NodeLabel" transform="translate(158.34221748400853,85.87148491475945)"><text x="-5.0040000000000004" y="2.2995" style="fill:rgb(16.1%,15.3%,14.1%);fill-opacity:1.0">12</text></g><g class="toytree-NodeLabel" transform="translate(274.9466950959488,85.87148491475945)"><text x="-5.0040000000000004" y="2.2995" style="fill:rgb(16.1%,15.3%,14.1%);fill-opacity:1.0">13</text></g><g class="toytree-NodeLabel" transform="translate(216.64445628997865,56.58864008638439)"><text x="-5.0040000000000004" y="2.2995" style="fill:rgb(16.1%,15.3%,14.1%);fill-opacity:1.0">14</text></g></g><g class="toytree-TipLabels" style="fill:rgb(16.1%,15.3%,14.1%);fill-opacity:1.0;font-family:Helvetica;font-size:11.0px;font-weight:300;stroke:none;vertical-align:baseline;white-space:pre"><g class="toytree-TipLabel" transform="translate(58.395522388059696,173.7200193998847)rotate(90.0)"><text x="15.0" y="2.8104999999999993" style="">r0</text></g><g class="toytree-TipLabel" transform="translate(91.71108742004265,173.7200193998847)rotate(90.0)"><text x="15.0" y="2.8104999999999993" style="">r1</text></g><g class="toytree-TipLabel" transform="translate(125.02665245202557,173.7200193998847)rotate(90.0)"><text x="15.0" y="2.8104999999999993" style="">r2</text></g><g class="toytree-TipLabel" transform="translate(158.34221748400853,173.7200193998847)rotate(90.0)"><text x="15.0" y="2.8104999999999993" style="">r3</text></g><g class="toytree-TipLabel" transform="translate(191.65778251599144,173.7200193998847)rotate(90.0)"><text x="15.0" y="2.8104999999999993" style="">r4</text></g><g class="toytree-TipLabel" transform="translate(224.97334754797438,173.7200193998847)rotate(90.0)"><text x="15.0" y="2.8104999999999993" style="">r5</text></g><g class="toytree-TipLabel" transform="translate(258.28891257995735,173.7200193998847)rotate(90.0)"><text x="15.0" y="2.8104999999999993" style="">r6</text></g><g class="toytree-TipLabel" transform="translate(291.6044776119403,173.7200193998847)rotate(90.0)"><text x="15.0" y="2.8104999999999993" style="">r7</text></g></g></g></g></g></svg>