<svg class="toyplot-canvas-Canvas" xmlns:toyplot="http://www.sandia.gov/toyplot" xmlns:xlink="http://www.w3.org/1999/xlink" xmlns="http://www.w3.org/2000/svg" width="350.0px" height="250.0px" viewBox="0 0 350.0 250.0" preserveAspectRatio="xMidYMid meet" style="background-color:white;border-color:#292724;border-style:none;border-width:1.0;fill:rgb(16.1%,15.3%,14.1%);fill-opacity:1.0;font-family:Helvetica;font-size:12px;opacity:1.0;stroke:rgb(16.1%,15.3%,14.1%);stroke-opacity:1.0;stroke-width:1.0" id="t6439170f7d3246ad8eeda90792f39c99"><g class="toyplot-coordinates-Cartesian" id="tcc23679f8438435498ec02e552ccf9f1"><clipPath id="t3ede1276d3464a66bd6762bf4d952749"><rect x="35.0" y="35.0" width="280.0" height="180.0" /></clipPath><g clip-path="url(#t3ede1276d3464a66bd6762bf4d952749)"><g class="toytree-mark-Toytree" id="t24f9a9734654453483b90bb62cd9b23a"><g class="toytree-Edges" style="fill:none;stroke:rgba(16.1%,15.3%,14.1%,1.000);stroke-linecap:round;stroke-width:2.0"><path d="M 112.6 57.2 L 57.5 57.2 L 57.5 192.8" id="8,0" style="stroke-width:nan" /><path d="M 167.7 91.1 L 116.3 91.1 L 116.3 192.8" id="7,1" style="stroke-width:nan" /><path d="M 219.1 125.0 L 175.0 125.0 L 175.0 192.8" id="6,2" style="stroke-width:nan" /><path d="M 263.1 158.9 L 233.7 158.9 L 233.7 192.8" id="5,3" style="stroke-width:nan" /><path d="M 263.1 158.9 L 292.5 158.9 L 292.5 192.8" id="5,4" style="stroke-width:nan" /><path d="M 219.1 125.0 L 263.1 125.0 L 263.1 158.9" id="6,5" style="stroke-width:nan" /><path d="M 167.7 91.1 L 219.1 91.1 L 219.1 125.0" id="7,6" style="stroke-width:nan" /><path d="M 112.6 57.2 L 167.7 57.2 L 167.7 91.1" id="8,7" style="stroke-width:nan" /></g><g class="toytree-Nodes" style="fill:rgba(82.7%,82.7%,82.7%,1.000);stroke:#262626;stroke-width:1.5"><g id="node-0" transform="translate(57.519,192.771)"><circle r="8.0" /></g><g id="node-1" transform="translate(116.259,192.771)"><circle r="8.0" /></g><g id="node-2" transform="translate(175.000,192.771)"><circle r="8.0" /></g><g id="node-3" transform="translate(233.741,192.771)"><circle r="8.0" /></g><g id="node-4" transform="translate(292.481,192.771)"><circle r="8.0" /></g><g id="node-5" transform="translate(263.111,158.886)"><circle r="8.0" /></g><g id="node-6" transform="translate(219.055,125.000)"><circle r="8.0" /></g><g id="node-7" transform="translate(167.657,91.114)"><circle r="8.0" /></g><g id="node-8" transform="translate(112.588,57.229)"><circle r="8.0" /></g></g></g></g></g></svg>